<svg width="32" height="32" viewBox="0 0 32 32" fill="none" xmlns="http://www.w3.org/2000/svg">
<path d="M24 14V25.5C24 25.8283 23.9353 26.1534 23.8097 26.4567C23.6841 26.76 23.4999 27.0356 23.2678 27.2678C23.0356 27.4999 22.76 27.6841 22.4567 27.8097C22.1534 27.9353 21.8283 28 21.5 28H6.5C5.83696 28 5.20107 27.7366 4.73223 27.2678C4.26339 26.7989 4 26.163 4 25.5V10.5C4 9.83696 4.26339 9.20107 4.73223 8.73223C5.20107 8.26339 5.83696 8 6.5 8H16.9675" stroke="white" stroke-width="2" stroke-linecap="round" stroke-linejoin="round"/>
<path d="M28.7463 3.32814C28.6549 3.22779 28.5442 3.147 28.4208 3.09065C28.2973 3.0343 28.1638 3.00356 28.0281 3.00029C27.8925 2.99702 27.7576 3.02128 27.6316 3.07162C27.5056 3.12195 27.3911 3.19731 27.295 3.29314L26.5219 4.06252C26.4282 4.15628 26.3756 4.2834 26.3756 4.41596C26.3756 4.54851 26.4282 4.67563 26.5219 4.76939L27.2306 5.47689C27.2771 5.52357 27.3323 5.56061 27.3931 5.58588C27.454 5.61115 27.5192 5.62416 27.585 5.62416C27.6509 5.62416 27.7161 5.61115 27.7769 5.58588C27.8377 5.56061 27.8929 5.52357 27.9394 5.47689L28.6931 4.72689C29.0744 4.34627 29.11 3.72627 28.7463 3.32814ZM24.9588 5.62502L13.6763 16.8875C13.6079 16.9556 13.5581 17.0402 13.5319 17.1331L13.01 18.6875C12.9975 18.7297 12.9966 18.7745 13.0075 18.8171C13.0183 18.8597 13.0404 18.8987 13.0715 18.9298C13.1026 18.9609 13.1415 18.983 13.1842 18.9938C13.2268 19.0047 13.2716 19.0038 13.3138 18.9913L14.8669 18.4694C14.9598 18.4431 15.0444 18.3934 15.1125 18.325L26.375 7.04127C26.4792 6.93596 26.5377 6.79379 26.5377 6.64564C26.5377 6.4975 26.4792 6.35533 26.375 6.25002L25.7531 5.62502C25.6477 5.51987 25.5049 5.46083 25.356 5.46083C25.207 5.46083 25.0642 5.51987 24.9588 5.62502Z" fill="white"/>
</svg>
